# xmcd
#
# Track frame offsets:
# 150
# 21939
# 43151
# 59581
# 75017
# 93198
# 108348
# 128148
# 147586
# 169777
# 184961
# 202040
# 220243
#
# Disc length: 3083 seconds
#
#
# Revision: 0
# Processed by: cddbd v1.5.2PL0 Copyright (c) Steve Scherf et al.
# Submitted via: FreeRIP 2.945 
#
DISCID=b90c090d
DTITLE=Guarabyra - Lembranças do futuro
DYEAR=2007
DGENRE=Rock
TTITLE0=Lembranças do fururo
TTITLE1=Fogo caipira
TTITLE2=Velhas histórias
TTITLE3=Manhãs bonitas do sertão
TTITLE4=É preciso amar muito mais
TTITLE5=Paraíso agora
TTITLE6=Tabuleiro
TTITLE7=Nós nos amaremos
TTITLE8=Você se lembra
TTITLE9=Frente à frente
TTITLE10=Inutilmente
TTITLE11=Roda o mundo
TTITLE12=Pássaro
EXTD=
EXTT0=
EXTT1=
EXTT2=
EXTT3=
EXTT4=
EXTT5=
EXTT6=
EXTT7=
EXTT8=
EXTT9=
EXTT10=
EXTT11=
EXTT12=
PLAYORDER=
